# xmcd
#
# Track frame offsets:
#	150
#	15472
#	35210
#	52598
#	68795
#	84307
#	99462
#	112516
#	123874
#	143082
#	159355
#	175150
#	188931
#	203965
#	221271
#
# Disc length: 3144 seconds
#
# Revision: 0
# Processed by: cddbd v1.5.1PL0 Copyright (c) Steve Scherf et al.
# Submitted via: audiograbber 1.83.01
#
DISCID=b80c460f
DTITLE=Strait, George - Latest Greatest Straitest Hits - Strait, George - Lates
DTITLE=t Greatest Straitest Hits
DYEAR=2000
DGENRE=Country
TTITLE0=The Best Day
TTITLE1=Murder On Music Row (A Duet With Alan Jackson)
TTITLE2=Carrying Your Love With Me
TTITLE3=Adalida
TTITLE4=Lead On
TTITLE5=Carried Away
TTITLE6=Blue Clear Sky
TTITLE7=We Really Shouldn't Be Doing This
TTITLE8=I Can Still Make Cheyenne
TTITLE9=True
TTITLE10=King Of The Mountain
TTITLE11=Round About Way
TTITLE12=You Can't Make A Heart Love Somebody
TTITLE13=One Night At A Time
TTITLE14=Today My World Slipped Away
EXTD=
EXTT0=
EXTT1=
EXTT2=
EXTT3=
EXTT4=
EXTT5=
EXTT6=
EXTT7=
EXTT8=
EXTT9=
EXTT10=
EXTT11=
EXTT12=
EXTT13=
EXTT14=
PLAYORDER=
